# xmcd
#
# Track frame offsets:
#	150
#	16890
#	35005
#	48445
#	65245
#	81995
#	97625
#	114440
#	128995
#	147882
#	159635
#	178307
#	195240
#	213002
#	233075
#	251370
#	271860
#	289735
#
# Disc length: 4126 seconds
#
# Revision: 1
# Processed by: cddbd v1.5PL3 Copyright (c) Steve Scherf et al.
# Submitted via: CDex 1.50Beta5
#
DISCID=f7101c12
DTITLE=北島三郎 - 北島三郎ツインパック Disc1
DYEAR=1900
DGENRE=country
TTITLE0=なみだ船
TTITLE1=ギター仁義
TTITLE2=銀座の庄助さん
TTITLE3=喧嘩辰
TTITLE4=兄弟仁義
TTITLE5=帰ろかな
TTITLE6=男の涙
TTITLE7=函館の女
TTITLE8=関東流れ唄
TTITLE9=薩摩の女
TTITLE10=仁義
TTITLE11=加賀の女
TTITLE12=歩
TTITLE13=終着駅は始発駅
TTITLE14=与作
TTITLE15=風雪ながれ旅
TTITLE16=漁歌
TTITLE17=夫婦絶唱
EXTD=
EXTT0=
EXTT1=
EXTT2=
EXTT3=
EXTT4=
EXTT5=
EXTT6=
EXTT7=
EXTT8=
EXTT9=
EXTT10=
EXTT11=
EXTT12=
EXTT13=
EXTT14=
EXTT15=
EXTT16=
EXTT17=
PLAYORDER=
